<?xml version="1.0" encoding="UTF-8" standalone="no"?><svg xmlns="http://www.w3.org/2000/svg" xmlns:xlink="http://www.w3.org/1999/xlink" contentScriptType="application/ecmascript" contentStyleType="text/css" height="691px" preserveAspectRatio="none" style="width:457px;height:691px;" version="1.1" viewBox="0 0 457 691" width="457px" zoomAndPan="magnify"><defs/><g><!--MD5=[56209823df42f8beafed60a62336139b]
entity _Background--><rect fill="#F8F8F8" height="34.4844" rx="3" ry="3" style="stroke: #000000; stroke-width: 0.5;" width="88" x="358" y="236"/><text fill="#000000" font-family="Tahoma, sans-serif" font-size="12" lengthAdjust="spacingAndGlyphs" textLength="68" x="368" y="258.0059">Background</text><!--MD5=[ff4827e205a095f467fbe464835f0b19]
entity _Character--><rect fill="#F8F8F8" height="34.4844" rx="3" ry="3" style="stroke: #000000; stroke-width: 0.5;" width="75" x="149.5" y="414"/><text fill="#000000" font-family="Tahoma, sans-serif" font-size="12" lengthAdjust="spacingAndGlyphs" textLength="55" x="159.5" y="436.0059">Character</text><ellipse cx="191.9548" cy="194.091" fill="#F8F8F8" rx="58.4548" ry="14.091" style="stroke: #383838; stroke-width: 0.5;"/><text fill="#000000" font-family="Tahoma, sans-serif" font-size="12" lengthAdjust="spacingAndGlyphs" textLength="84" x="149.9548" y="197.8331">characterState</text><!--MD5=[ed217b44060e8be12eda7aa7a28afb47]
entity _constants--><rect fill="#F8F8F8" height="34.4844" rx="3" ry="3" style="stroke: #000000; stroke-width: 0.5;" width="78" x="102" y="646"/><text fill="#000000" font-family="Tahoma, sans-serif" font-size="12" lengthAdjust="spacingAndGlyphs" textLength="58" x="112" y="668.0059">constants</text><ellipse cx="141.0122" cy="605.242" fill="#F8F8F8" rx="44.0122" ry="13.242" style="stroke: #383838; stroke-width: 0.5;"/><text fill="#000000" font-family="Tahoma, sans-serif" font-size="12" lengthAdjust="spacingAndGlyphs" textLength="58" x="112.0122" y="608.9842">constants</text><ellipse cx="191.9264" cy="311.242" fill="#F8F8F8" rx="45.4264" ry="13.242" style="stroke: #383838; stroke-width: 0.5;"/><text fill="#000000" font-family="Tahoma, sans-serif" font-size="12" lengthAdjust="spacingAndGlyphs" textLength="60" x="161.9264" y="314.9842">framework</text><!--MD5=[dc65f53a49d130e442cb703b887663fb]
entity _game--><rect fill="#F8F8F8" height="34.4844" rx="3" ry="3" style="stroke: #000000; stroke-width: 0.5;" width="52" x="118" y="352"/><text fill="#000000" font-family="Tahoma, sans-serif" font-size="12" lengthAdjust="spacingAndGlyphs" textLength="32" x="128" y="374.0059">game</text><ellipse cx="163.2487" cy="22.242" fill="#F8F8F8" rx="27.7487" ry="13.242" style="stroke: #383838; stroke-width: 0.5;"/><text fill="#000000" font-family="Tahoma, sans-serif" font-size="12" font-weight="bold" lengthAdjust="spacingAndGlyphs" textLength="35" x="145.7487" y="25.9842">index</text><!--MD5=[49c425db2986ba22febfb263ae412668]
entity _keyboard--><rect fill="#F8F8F8" height="34.4844" rx="3" ry="3" style="stroke: #000000; stroke-width: 0.5;" width="72" x="60" y="414"/><text fill="#000000" font-family="Tahoma, sans-serif" font-size="12" lengthAdjust="spacingAndGlyphs" textLength="52" x="70" y="436.0059">keyboard</text><ellipse cx="232.0416" cy="22.242" fill="#F8F8F8" rx="27.0416" ry="13.242" style="stroke: #383838; stroke-width: 0.5;"/><text fill="#000000" font-family="Tahoma, sans-serif" font-size="12" font-weight="bold" lengthAdjust="spacingAndGlyphs" textLength="34" x="215.0416" y="25.9842">Menu</text><ellipse cx="332.2159" cy="22.2432" fill="#F8F8F8" rx="59.2159" ry="14.2432" style="stroke: #383838; stroke-width: 0.5;"/><text fill="#000000" font-family="Tahoma, sans-serif" font-size="12" font-weight="bold" lengthAdjust="spacingAndGlyphs" textLength="86" x="289.2159" y="25.9854">MenuButtons</text><ellipse cx="291.0061" cy="489.242" fill="#F8F8F8" rx="23.5061" ry="13.242" style="stroke: #383838; stroke-width: 0.5;"/><text fill="#000000" font-family="Tahoma, sans-serif" font-size="12" lengthAdjust="spacingAndGlyphs" textLength="29" x="276.5061" y="492.9842">state</text><!--MD5=[3399dce695ee48d996332c20fe59991a]
entity _state--><rect fill="#F8F8F8" height="34.4844" rx="3" ry="3" style="stroke: #000000; stroke-width: 0.5;" width="49" x="233.5" y="530"/><text fill="#000000" font-family="Tahoma, sans-serif" font-size="12" lengthAdjust="spacingAndGlyphs" textLength="29" x="243.5" y="552.0059">state</text><ellipse cx="215.2132" cy="77.242" fill="#F8F8F8" rx="24.2132" ry="13.242" style="stroke: #383838; stroke-width: 0.5;"/><text fill="#000000" font-family="Tahoma, sans-serif" font-size="12" lengthAdjust="spacingAndGlyphs" textLength="30" x="200.2132" y="80.9842">State</text><!--MD5=[02d3a2aad48ac2bee4147257fee00d01]
entity _State--><rect fill="#F8F8F8" height="34.4844" rx="3" ry="3" style="stroke: #000000; stroke-width: 0.5;" width="50" x="207" y="118"/><text fill="#000000" font-family="Tahoma, sans-serif" font-size="12" lengthAdjust="spacingAndGlyphs" textLength="30" x="217" y="140.0059">State</text><ellipse cx="233.9706" cy="369.242" fill="#F8F8F8" rx="19.9706" ry="13.242" style="stroke: #383838; stroke-width: 0.5;"/><text fill="#000000" font-family="Tahoma, sans-serif" font-size="12" lengthAdjust="spacingAndGlyphs" textLength="24" x="221.9706" y="372.9842">utils</text><!--MD5=[c16d95c80e8aac68c07f9ea9bd437400]
link _Background to constants--><path d="M407.566,270.012 C414.656,291.869 426,332.403 426,368 C426,368 426,368 426,490 C426,541.885 261.105,580.796 182.168,596.4506 " fill="none" id="_Background-&gt;constants" style="stroke: #000000; stroke-width: 0.5;"/><polygon fill="#000000" points="177.095,597.448,186.6975,599.6371,182.0011,596.4837,185.1546,591.7873,177.095,597.448" style="stroke: #000000; stroke-width: 0.5;"/><!--MD5=[3c6b86a9892b9b174f1d0b3009bdd3a4]
link _Background to framework--><path d="M357.977,265.739 C319.69,275.949 264.848,290.574 228.84,300.176 " fill="none" id="_Background-&gt;framework" style="stroke: #000000; stroke-width: 0.5;"/><polygon fill="#000000" points="223.668,301.555,233.3944,303.1033,228.4995,300.2678,231.3349,295.3729,223.668,301.555" style="stroke: #000000; stroke-width: 0.5;"/><!--MD5=[5aaebdebd0802f6c614384bae93acaa4]
link _Background to state--><path d="M395.23,270.132 C391.905,278.383 387.983,288.637 385,298 C364.125,363.528 385.794,391.213 347,448 C338.432,460.541 324.565,470.491 312.773,477.33 " fill="none" id="_Background-&gt;state" style="stroke: #000000; stroke-width: 0.5;"/><polygon fill="#000000" points="308.205,479.888,318.012,478.9812,312.5677,477.4452,314.1036,472.0009,308.205,479.888" style="stroke: #000000; stroke-width: 0.5;"/><!--MD5=[98398dfbbfbbca3f4cdb7d8c7299a524]
link _Character to constants--><path d="M182.672,448.181 C173.968,480.727 154.419,553.824 145.541,587.021 " fill="none" id="_Character-&gt;constants" style="stroke: #000000; stroke-width: 0.5;"/><polygon fill="#000000" points="144.211,591.9939,150.4006,584.333,145.5029,587.1637,142.6723,582.266,144.211,591.9939" style="stroke: #000000; stroke-width: 0.5;"/><!--MD5=[b8a42f29f6ec0ff61017e0129c1a1ba8]
link _Character to framework--><path d="M187.68,413.959 C188.617,391.832 190.301,352.101 191.266,329.318 " fill="none" id="_Character-&gt;framework" style="stroke: #000000; stroke-width: 0.5;"/><polygon fill="#000000" points="191.484,324.184,187.1069,333.0068,191.2725,329.1795,195.0998,333.3451,191.484,324.184" style="stroke: #000000; stroke-width: 0.5;"/><!--MD5=[824b15bcf71748dd7ec40b5d44459831]
link _Character to state--><path d="M216.802,448.047 C233.991,457.303 255.164,468.704 270.487,476.955 " fill="none" id="_Character-&gt;state" style="stroke: #000000; stroke-width: 0.5;"/><polygon fill="#000000" points="275.044,479.408,269.0162,471.6192,270.6416,477.0375,265.2234,478.663,275.044,479.408" style="stroke: #000000; stroke-width: 0.5;"/><!--MD5=[6b1ca29ea0d742e77b28f2a8aab4ebcd]
link characterState to constants--><path d="M175.6,207.547 C135.548,239.748 36,329.857 36,430 C36,430 36,430 36,490 C36,536.933 84.7429,572.832 115.808,590.9464 " fill="none" id="characterState-&gt;constants" style="stroke: #000000; stroke-width: 0.5;"/><polygon fill="#000000" points="120.255,593.4892,114.4268,585.5499,115.9142,591.0077,110.4564,592.4952,120.255,593.4892" style="stroke: #000000; stroke-width: 0.5;"/><!--MD5=[f57610e596e12007a3eb58fb20a329bd]
link characterState to framework--><path d="M192,208.192 C192,228.947 192,269.245 192,292.431 " fill="none" id="characterState-&gt;framework" style="stroke: #000000; stroke-width: 0.5;"/><polygon fill="#000000" points="192,297.659,196,288.659,192,292.659,188,288.659,192,297.659" style="stroke: #000000; stroke-width: 0.5;"/><!--MD5=[cad21db71c7f3c8fe653d717f4ad977c]
link characterState to state--><path d="M209.814,207.622 C234.472,226.722 276,265.496 276,310 C276,310 276,310 276,370 C276,406.134 283.007,447.998 287.443,470.879 " fill="none" id="characterState-&gt;state" style="stroke: #000000; stroke-width: 0.5;"/><polygon fill="#000000" points="288.455,476.003,290.6354,466.3985,287.4862,471.0977,282.787,467.9486,288.455,476.003" style="stroke: #000000; stroke-width: 0.5;"/><!--MD5=[760602f85b4bdd5c0ebd449aebb0858e]
link constants to _constants--><path d="M141,618.1512 C141,624.7376 141,633.0685 141,640.6954 " fill="none" id="constants-&gt;_constants" style="stroke: #000000; stroke-width: 0.5;"/><polygon fill="#000000" points="141,645.833,145,636.833,141,640.833,137,636.833,141,645.833" style="stroke: #000000; stroke-width: 0.5;"/><!--MD5=[b4cd8185755fe3f44ef239c82a83998f]
link framework to _game--><path d="M181.82,323.876 C175.861,330.829 168.176,339.794 161.292,347.826 " fill="none" id="framework-&gt;_game" style="stroke: #000000; stroke-width: 0.5;"/><polygon fill="#000000" points="157.988,351.68,166.8827,347.451,161.2424,347.8841,160.8093,342.2439,157.988,351.68" style="stroke: #000000; stroke-width: 0.5;"/><!--MD5=[7b1b02f5941fd8fce26e3b71c8e9a0cb]
link framework to _keyboard--><path d="M159.816,320.308 C142.785,326.345 122.976,336.281 111,352 C98.5796,368.303 95.5251,391.966 95.1478,408.949 " fill="none" id="framework-&gt;_keyboard" style="stroke: #000000; stroke-width: 0.5;"/><polygon fill="#000000" points="95.1093,413.989,99.1786,405.0201,95.1479,408.9891,91.1788,404.9584,95.1093,413.989" style="stroke: #000000; stroke-width: 0.5;"/><!--MD5=[0b8d0b9ebad76747aa31836a7872d3b4]
link framework to utils--><path d="M200.907,323.876 C207.198,332.264 215.685,343.58 222.489,352.652 " fill="none" id="framework-&gt;utils" style="stroke: #000000; stroke-width: 0.5;"/><polygon fill="#000000" points="225.677,356.903,223.477,347.303,222.677,352.903,217.077,352.103,225.677,356.903" style="stroke: #000000; stroke-width: 0.5;"/><!--MD5=[3a68d4bc17f6fc6ff7b04efe1a286b3a]
link _game to _Character--><path d="M155.523,386.079 C160.729,393.342 166.937,402.005 172.459,409.71 " fill="none" id="_game-&gt;_Character" style="stroke: #000000; stroke-width: 0.5;"/><polygon fill="#000000" points="175.445,413.877,173.4534,404.2316,172.5323,409.813,166.951,408.8919,175.445,413.877" style="stroke: #000000; stroke-width: 0.5;"/><!--MD5=[3a0907fbaaeaf25c079dc2e6739dac5a]
link <b>index</b> to _Background--><path d="M183.166,31.154 C187.976,32.913 193.128,34.648 198,36 C262.928,54.018 297.058,18.767 347,64 C395.365,107.806 402.126,191.565 402.48,230.773 " fill="none" id="&lt;b&gt;index&lt;/b&gt;-&gt;_Background" style="stroke: #000000; stroke-width: 1.0;"/><polygon fill="#000000" points="402.492,235.777,406.4714,226.7679,402.4806,230.777,398.4714,226.7862,402.492,235.777" style="stroke: #000000; stroke-width: 1.0;"/><!--MD5=[5d015153ee3ee1a8d01637815d40cff4]
link <b>index</b> to _Character--><path d="M143.747,31.319 C111.724,46.605 51,82.396 51,134 C51,134 51,134 51,195 C51,283.979 55.3843,316.544 111,386 C119.912,397.129 132.454,405.999 144.785,412.775 " fill="none" id="&lt;b&gt;index&lt;/b&gt;-&gt;_Character" style="stroke: #000000; stroke-width: 1.0;"/><polygon fill="#000000" points="149.312,415.177,143.2354,407.4262,144.8949,412.8341,139.4869,414.4936,149.312,415.177" style="stroke: #000000; stroke-width: 1.0;"/><!--MD5=[bb17db8c160cae92f0b4f1137c647eeb]
link <b>index</b> to constants--><path d="M138.813,28.239 C94.7731,39.358 6,69.741 6,134 C6,134 6,134 6,490 C6,527.6 19.0718,538.826 47,564 C63.0152,578.436 85.0181,588.1817 103.71,594.4363 " fill="none" id="&lt;b&gt;index&lt;/b&gt;-&gt;constants" style="stroke: #000000; stroke-width: 1.0;"/><polygon fill="#000000" points="108.887,596.1089,101.5528,589.5356,104.1292,594.5716,99.0931,597.1481,108.887,596.1089" style="stroke: #000000; stroke-width: 1.0;"/><!--MD5=[f77bb80ed12b50323d92c24a55ee2dfa]
link <b>index</b> to framework--><path d="M153.462,34.481 C138.45,53.757 111,94.418 111,134 C111,134 111,134 111,195 C111,237.477 148.393,275.321 172.366,295.219 " fill="none" id="&lt;b&gt;index&lt;/b&gt;-&gt;framework" style="stroke: #000000; stroke-width: 1.0;"/><polygon fill="#000000" points="176.382,298.49,171.9304,289.7046,172.5054,295.3321,166.8779,295.9071,176.382,298.49" style="stroke: #000000; stroke-width: 1.0;"/><!--MD5=[8a0a6e518e8683f47da59204e97b3545]
link <b>index</b> to state--><path d="M183.184,31.062 C228.819,49.923 336,98.047 336,134 C336,134 336,134 336,370 C336,408.687 314.622,450.102 301.335,472.105 " fill="none" id="&lt;b&gt;index&lt;/b&gt;-&gt;state" style="stroke: #000000; stroke-width: 1.0;"/><polygon fill="#000000" points="298.634,476.498,306.7569,470.9286,301.254,472.2394,299.9431,466.7365,298.634,476.498" style="stroke: #000000; stroke-width: 1.0;"/><!--MD5=[9daa0b90a1658539ba2edf31dc4520a7]
link <b>index</b> to State--><path d="M173.774,33.982 C181.583,41.941 192.221,52.783 200.735,61.461 " fill="none" id="&lt;b&gt;index&lt;/b&gt;-&gt;State" style="stroke: #000000; stroke-width: 1.0;"/><polygon fill="#000000" points="204.239,65.032,200.7928,55.8058,200.7379,61.4623,195.0813,61.4075,204.239,65.032" style="stroke: #000000; stroke-width: 1.0;"/><!--MD5=[5ed15f9aa836edfba020811482529d1e]
link _keyboard to constants--><path d="M100.2335,448.181 C108.748,480.727 127.873,553.824 136.558,587.021 " fill="none" id="_keyboard-&gt;constants" style="stroke: #000000; stroke-width: 0.5;"/><polygon fill="#000000" points="137.859,591.9939,139.4507,582.2745,136.5934,587.1567,131.7112,584.2994,137.859,591.9939" style="stroke: #000000; stroke-width: 0.5;"/><!--MD5=[307dec52533c0e6cddf6597f28096458]
link state to _state--><path d="M284.162,501.603 C280.085,508.523 274.791,517.506 270.033,525.58 " fill="none" id="state-&gt;_state" style="stroke: #000000; stroke-width: 0.5;"/><polygon fill="#000000" points="267.456,529.953,275.471,524.2294,269.9942,525.6451,268.5784,520.1683,267.456,529.953" style="stroke: #000000; stroke-width: 0.5;"/><!--MD5=[5213ee34e6c6bb002ddfca41550e7157]
link _state to _Background--><path d="M282.672,538.284 C322.365,524.155 396,490.112 396,432 C396,368 396,368 396,368 C396,335.707 398.431,298.34 400.198,275.44 " fill="none" id="_state-&gt;_Background" style="stroke: #000000; stroke-width: 0.5;"/><polygon fill="#000000" points="400.608,270.221,395.9158,278.8803,400.2167,275.2057,403.8913,279.5065,400.608,270.221" style="stroke: #000000; stroke-width: 0.5;"/><!--MD5=[6212bd39c20d40308e1d602beb080524]
link _state to _Character--><path d="M247.846,529.697 C235.202,509.394 213.591,474.695 199.818,452.581 " fill="none" id="_state-&gt;_Character" style="stroke: #000000; stroke-width: 0.5;"/><polygon fill="#000000" points="197.173,448.333,198.5371,458.0869,199.817,452.5768,205.3271,453.8566,197.173,448.333" style="stroke: #000000; stroke-width: 0.5;"/><!--MD5=[b3cea7f5fcb1d6da68e1b053b2d3e390]
link _state to constants--><path d="M233.473,559.739 C214.118,569.003 187.171,581.9013 167.357,591.3847 " fill="none" id="_state-&gt;constants" style="stroke: #000000; stroke-width: 0.5;"/><polygon fill="#000000" points="162.737,593.596,172.5819,593.3186,167.247,591.4374,169.1282,586.1025,162.737,593.596" style="stroke: #000000; stroke-width: 0.5;"/><!--MD5=[b546cc91d0167993ca09a24952ae6716]
link State to _State--><path d="M218.605,89.876 C220.601,96.45 223.142,104.822 225.474,112.503 " fill="none" id="State-&gt;_State" style="stroke: #000000; stroke-width: 0.5;"/><polygon fill="#000000" points="227.046,117.68,228.2583,107.906,225.5931,112.8957,220.6035,110.2306,227.046,117.68" style="stroke: #000000; stroke-width: 0.5;"/><!--MD5=[2835b8f865f4b9f9732fc30ddd3f84d0]
link _State to characterState--><path d="M220.645,152.181 C215.518,159.486 209.454,168.128 204.228,175.575 " fill="none" id="_State-&gt;characterState" style="stroke: #000000; stroke-width: 0.5;"/><polygon fill="#000000" points="201.099,180.035,209.5424,174.9647,203.9706,175.9419,202.9934,170.3701,201.099,180.035" style="stroke: #000000; stroke-width: 0.5;"/><!--MD5=[eb86e2fb0f928e2eb75367181a10aaf7]
link _State to framework--><path d="M243.917,152.244 C249.019,160.189 254.396,170.147 257,180 C260.179,192.031 260.483,196.053 257,208 C247.11,241.922 222.137,275.32 206.184,294.226 " fill="none" id="_State-&gt;framework" style="stroke: #000000; stroke-width: 0.5;"/><polygon fill="#000000" points="202.729,298.261,211.6203,294.0248,205.9804,294.4625,205.5427,288.8226,202.729,298.261" style="stroke: #000000; stroke-width: 0.5;"/><!--MD5=[0ffec56b183e5e87ec1f5e33e9a72702]
link _State to state--><path d="M250.673,152.001 C272.595,172.672 306,210.913 306,252 C306,252 306,252 306,370 C306,406.134 298.993,447.998 294.557,470.879 " fill="none" id="_State-&gt;state" style="stroke: #000000; stroke-width: 0.5;"/><polygon fill="#000000" points="293.545,476.003,299.213,467.9486,294.5138,471.0977,291.3646,466.3985,293.545,476.003" style="stroke: #000000; stroke-width: 0.5;"/><script type="text/plantuml"><![CDATA[MD5=[a36133a308fec354d35659c24984f25c]
@startuml

scale max 1920 width
top to bottom direction

skinparam nodesep 14
skinparam ranksep 28
skinparam monochrome true
skinparam shadowing false
skinparam defaultFontName Tahoma
skinparam defaultFontSize 12
skinparam roundCorner 6
skinparam dpi 150
skinparam arrowColor black
skinparam arrowThickness 0.5
skinparam packageTitleAlignment left

skinparam usecase {
  borderThickness 0.5
}

skinparam rectangle {
  borderThickness 0.5
}

skinparam component {
  borderThickness 1
}


rectangle "Background" as _Background
rectangle "Character" as _Character
(characterState)
rectangle "constants" as _constants
(constants)
(framework)
rectangle "game" as _game
(<b>index</b>)
rectangle "keyboard" as _keyboard
(<b>Menu</b>)
(<b>MenuButtons</b>)
(state)
rectangle "state" as _state
(State)
rectangle "State" as _State
(utils)


_Background --> (constants)
_Background --> (framework)
_Background --> (state)
_Character --> (constants)
_Character --> (framework)
_Character --> (state)
(characterState) ---> (constants)
(characterState) ---> (framework)
(characterState) ---> (state)
(constants) --> _constants
(framework) --> _game
(framework) --> _keyboard
(framework) --> (utils)
_game --> _Character
(<b>index</b>) -[thickness=1]> _Background
(<b>index</b>) -[thickness=1]> _Character
(<b>index</b>) -[thickness=1]> (constants)
(<b>index</b>) -[thickness=1]> (framework)
(<b>index</b>) -[thickness=1]> (state)
(<b>index</b>) --[thickness=1]> (State)
_keyboard --> (constants)
(state) --> _state
_state --> _Background
_state --> _Character
_state --> (constants)
(State) --> _State
_State --> (characterState)
_State ---> (framework)
_State ---> (state)

@enduml


' View and edit on https://arkit.pro
]]></script></g></svg>